<svg baseProfile="full" width="300" height="300" viewBox="0 0 300 300" version="1.1"
xmlns="http://www.w3.org/2000/svg" xmlns:ev="http://www.w3.org/2001/xml-events"
xmlns:xlink="http://www.w3.org/1999/xlink">

<style>rect.s{mask:url(#mask);}</style>
<defs>
  <pattern id="white" width="4" height="4" patternUnits="userSpaceOnUse" patternTransform="rotate(45)">
    <rect width="2" height="2" transform="translate(0,0)" fill="white"></rect>
  </pattern>
  <mask id="mask">
    <rect x="0" y="0" width="100%" height="100%" fill="url(#white)"></rect>
  </mask>
</defs>

<circle cx="150.0" cy="150.0" fill="#8aca02" r="47.5" stroke="white" stroke-width="1" />
<path d="M 150.0 197.5 L 150.0 245.0 A 95.0 95.0 0 0 0 220.256369567 86.0543782944 L 185.128184783 118.027189147 A 47.5 47.5 0 0 1 150.0 197.5 z" fill="#a4aa1a" stroke="white" stroke-width="1" />
<path d="M 150.0 245.0 L 150.0 292.5 A 142.5 142.5 0 0 0 199.717157926 283.545700821 L 183.144771951 239.030467214 A 95.0 95.0 0 0 1 150.0 245.0 z" fill="#dfb317" stroke="white" stroke-width="1" />
<path d="M 183.144771951 239.030467214 L 199.717157926 283.545700821 A 142.5 142.5 0 0 0 239.988677567 260.491121407 L 209.992451711 223.660747605 A 95.0 95.0 0 0 1 183.144771951 239.030467214 z" fill="#4c1" stroke="white" stroke-width="1" />
<path d="M 209.992451711 223.660747605 L 239.988677567 260.491121407 A 142.5 142.5 0 0 0 247.324597568 254.087332122 L 214.883065045 219.391554748 A 95.0 95.0 0 0 1 209.992451711 223.660747605 z" fill="#4c1" stroke="white" stroke-width="1" />
<path d="M 214.883065045 219.391554748 L 247.324597568 254.087332122 A 142.5 142.5 0 0 0 256.547370135 244.625091373 L 221.03158009 213.083394249 A 95.0 95.0 0 0 1 214.883065045 219.391554748 z" fill="#ccb21a" stroke="white" stroke-width="1" />
<path d="M 221.03158009 213.083394249 L 256.547370135 244.625091373 A 142.5 142.5 0 0 0 264.024991607 235.466667707 L 226.016661071 206.977778472 A 95.0 95.0 0 0 1 221.03158009 213.083394249 z" fill="#57cc0c" stroke="white" stroke-width="1" />
<path d="M 226.016661071 206.977778472 L 264.024991607 235.466667707 A 142.5 142.5 0 0 0 266.077073167 232.658109614 L 227.384715445 205.105406409 A 95.0 95.0 0 0 1 226.016661071 206.977778472 z" fill="#f98b2c" stroke="white" stroke-width="1" />
<path d="M 227.384715445 205.105406409 L 266.077073167 232.658109614 A 142.5 142.5 0 0 0 257.694314345 56.6823454128 L 221.796209564 87.7882302752 A 95.0 95.0 0 0 1 227.384715445 205.105406409 z" fill="#c6b11a" stroke="white" stroke-width="1" />
<path d="M 221.796209564 87.7882302752 L 257.694314345 56.6823454128 A 142.5 142.5 0 0 0 255.38455435 54.0815674416 L 220.256369567 86.0543782944 A 95.0 95.0 0 0 1 221.796209564 87.7882302752 z" fill="#4c1" stroke="white" stroke-width="1" />
<path d="M 185.128184783 118.027189147 L 220.256369567 86.0543782944 A 95.0 95.0 0 0 0 116.204147168 61.2146389805 L 133.102073584 105.60731949 A 47.5 47.5 0 0 1 185.128184783 118.027189147 z" fill="#9ac603" stroke="white" stroke-width="1" />
<path d="M 220.256369567 86.0543782944 L 255.38455435 54.0815674416 A 142.5 142.5 0 0 0 244.494978799 43.3372183856 L 212.996652533 78.8914789237 A 95.0 95.0 0 0 1 220.256369567 86.0543782944 z" fill="#e05d44" stroke="white" stroke-width="1" />
<path d="M 212.996652533 78.8914789237 L 244.494978799 43.3372183856 A 142.5 142.5 0 0 0 232.516374859 33.8221282681 L 205.010916573 72.548085512 A 95.0 95.0 0 0 1 212.996652533 78.8914789237 z" fill="#4c1" stroke="white" stroke-width="1" />
<path d="M 205.010916573 72.548085512 L 232.516374859 33.8221282681 A 142.5 142.5 0 0 0 99.3062207519 16.8219584708 L 116.204147168 61.2146389805 A 95.0 95.0 0 0 1 205.010916573 72.548085512 z" fill="#74cb06" stroke="white" stroke-width="1" />
<path d="M 133.102073584 105.60731949 L 116.204147168 61.2146389805 A 95.0 95.0 0 0 0 80.0566515222 85.7121473083 L 115.028325761 117.856073654 A 47.5 47.5 0 0 1 133.102073584 105.60731949 z" fill="#4c1" stroke="white" stroke-width="1" />
<path d="M 116.204147168 61.2146389805 L 99.3062207519 16.8219584708 A 142.5 142.5 0 0 0 96.0707434411 18.0989564598 L 114.047162294 62.0659709732 A 95.0 95.0 0 0 1 116.204147168 61.2146389805 z" fill="#4c1" stroke="white" stroke-width="1" />
<path d="M 114.047162294 62.0659709732 L 96.0707434411 18.0989564598 A 142.5 142.5 0 0 0 69.7679542212 32.2329892111 L 96.5119694808 71.4886594741 A 95.0 95.0 0 0 1 114.047162294 62.0659709732 z" fill="#4c1" stroke="white" stroke-width="1" />
<path d="M 96.5119694808 71.4886594741 L 69.7679542212 32.2329892111 A 142.5 142.5 0 0 0 53.9530160168 44.7325935167 L 85.9686773445 79.8217290111 A 95.0 95.0 0 0 1 96.5119694808 71.4886594741 z" fill="#4c1" stroke="white" stroke-width="1" />
<path d="M 85.9686773445 79.8217290111 L 53.9530160168 44.7325935167 A 142.5 142.5 0 0 0 45.0849772832 53.5682209625 L 80.0566515222 85.7121473083 A 95.0 95.0 0 0 1 85.9686773445 79.8217290111 z" fill="#4c1" stroke="white" stroke-width="1" />
<path d="M 115.028325761 117.856073654 L 80.0566515222 85.7121473083 A 95.0 95.0 0 0 0 63.2982797593 111.16944879 L 106.64913988 130.584724395 A 47.5 47.5 0 0 1 115.028325761 117.856073654 z" fill="#4c1" stroke="white" stroke-width="1" />
<path d="M 80.0566515222 85.7121473083 L 45.0849772832 53.5682209625 A 142.5 142.5 0 0 0 19.9474196389 91.7541731845 L 63.2982797593 111.16944879 A 95.0 95.0 0 0 1 80.0566515222 85.7121473083 z" fill="#4c1" stroke="white" stroke-width="1" />
<path d="M 106.64913988 130.584724395 L 63.2982797593 111.16944879 A 95.0 95.0 0 0 0 55.2298004178 143.396268392 L 102.614900209 146.698134196 A 47.5 47.5 0 0 1 106.64913988 130.584724395 z" fill="#4c1" stroke="white" stroke-width="1" />
<path d="M 63.2982797593 111.16944879 L 19.9474196389 91.7541731845 A 142.5 142.5 0 0 0 17.2599195167 98.1702688287 L 61.5066130111 115.446845886 A 95.0 95.0 0 0 1 63.2982797593 111.16944879 z" fill="#f98b2c" stroke="white" stroke-width="1" />
<path d="M 61.5066130111 115.446845886 L 17.2599195167 98.1702688287 A 142.5 142.5 0 0 0 7.84470062671 140.094402588 L 55.2298004178 143.396268392 A 95.0 95.0 0 0 1 61.5066130111 115.446845886 z" fill="#4c1" stroke="white" stroke-width="1" />
<path d="M 102.614900209 146.698134196 L 55.2298004178 143.396268392 A 95.0 95.0 0 0 0 129.296760653 242.716642953 L 139.648380327 196.358321477 A 47.5 47.5 0 0 1 102.614900209 146.698134196 z" fill="#68cb09" stroke="white" stroke-width="1" />
<path d="M 55.2298004178 143.396268392 L 7.84470062671 140.094402588 A 142.5 142.5 0 0 0 9.00036826338 170.624108469 L 56.0002455089 163.749405646 A 95.0 95.0 0 0 1 55.2298004178 143.396268392 z" fill="#53cc0d" stroke="white" stroke-width="1" />
<path d="M 56.0002455089 163.749405646 L 9.00036826338 170.624108469 A 142.5 142.5 0 0 0 11.1954273864 182.241907846 L 57.4636182576 171.494605231 A 95.0 95.0 0 0 1 56.0002455089 163.749405646 z" fill="#a3b114" stroke="white" stroke-width="1" />
<path d="M 57.4636182576 171.494605231 L 11.1954273864 182.241907846 A 142.5 142.5 0 0 0 17.3868322689 202.153597616 L 61.5912215126 184.769065077 A 95.0 95.0 0 0 1 57.4636182576 171.494605231 z" fill="#4c1" stroke="white" stroke-width="1" />
<path d="M 61.5912215126 184.769065077 L 17.3868322689 202.153597616 A 142.5 142.5 0 0 0 17.6430275689 202.800396295 L 61.7620183793 185.200264196 A 95.0 95.0 0 0 1 61.5912215126 184.769065077 z" fill="#e05d44" stroke="white" stroke-width="1" />
<path d="M 61.7620183793 185.200264196 L 17.6430275689 202.800396295 A 142.5 142.5 0 0 0 118.94514098 289.07496443 L 129.296760653 242.716642953 A 95.0 95.0 0 0 1 61.7620183793 185.200264196 z" fill="#74cb06" stroke="white" stroke-width="1" />
<path d="M 139.648380327 196.358321477 L 129.296760653 242.716642953 A 95.0 95.0 0 0 0 150.0 245.0 L 150.0 197.5 A 47.5 47.5 0 0 1 139.648380327 196.358321477 z" fill="#4fcc0e" stroke="white" stroke-width="1" />
<path d="M 129.296760653 242.716642953 L 118.94514098 289.07496443 A 142.5 142.5 0 0 0 134.032717282 291.602598432 L 139.355144854 244.401732288 A 95.0 95.0 0 0 1 129.296760653 242.716642953 z" fill="#a2b511" stroke="white" stroke-width="1" />
<path d="M 139.355144854 244.401732288 L 134.032717282 291.602598432 A 142.5 142.5 0 0 0 147.913002572 292.48471652 L 148.608668382 244.989811013 A 95.0 95.0 0 0 1 139.355144854 244.401732288 z" fill="#4c1" stroke="white" stroke-width="1" />
<path d="M 148.608668382 244.989811013 L 147.913002572 292.48471652 A 142.5 142.5 0 0 0 150.0 292.5 L 150.0 245.0 A 95.0 95.0 0 0 1 148.608668382 244.989811013 z" fill="#4c1" stroke="white" stroke-width="1" />
</svg>